<svg width="58" height="58" viewBox="0 0 58 58" fill="none" xmlns="http://www.w3.org/2000/svg">
<path d="M28.0425 18.8705C28.1331 18.8704 28.2236 18.8702 28.3169 18.87C28.5079 18.8702 28.6989 18.8715 28.8898 18.8738C29.1824 18.8771 29.4747 18.8761 29.7672 18.8747C29.9529 18.8754 30.1386 18.8763 30.3243 18.8775C30.4555 18.877 30.4555 18.877 30.5894 18.8765C31.1863 18.8869 31.1863 18.8869 31.4699 19.0675C31.6083 19.3039 31.6314 19.4624 31.6411 19.7358C31.645 19.8257 31.649 19.9155 31.6531 20.0081C31.6556 20.1015 31.6581 20.1948 31.6607 20.2909C31.6646 20.3856 31.6684 20.4802 31.6723 20.5777C31.6816 20.811 31.6888 21.0444 31.6957 21.2779C31.7972 21.3131 31.8987 21.3483 32.0033 21.3846C32.7748 21.6556 33.5295 21.9404 34.2715 22.2858C34.3513 22.1968 34.4312 22.1079 34.5134 22.0163C34.6216 21.9007 34.73 21.7852 34.8384 21.6698C34.8906 21.6111 34.9428 21.5523 34.9966 21.4918C35.3007 21.1731 35.4718 21.0582 35.9124 20.9974C36.2882 21.054 36.4152 21.0826 36.6793 21.3408C36.7523 21.4109 36.8254 21.4809 36.9006 21.553C36.9939 21.647 37.0871 21.741 37.1832 21.8378C37.324 21.976 37.4649 22.1141 37.6058 22.2521C37.9067 22.5486 38.2071 22.8456 38.5052 23.1449C38.5687 23.2086 38.6322 23.2722 38.6976 23.3377C38.9454 23.6071 39.0791 23.806 39.1395 24.1695C39.0687 24.6501 38.8165 24.8712 38.4711 25.1835C38.383 25.2671 38.383 25.2671 38.2931 25.3523C38.1486 25.489 38.0021 25.6234 37.8552 25.7574C38.0399 26.3349 38.2701 26.8826 38.5135 27.4373C38.6397 27.7749 38.7039 28.0887 38.7511 28.4452C38.8739 28.4413 38.9968 28.4374 39.1234 28.4334C39.2862 28.4302 39.4491 28.4272 39.612 28.4242C39.6928 28.4214 39.7735 28.4186 39.8568 28.4157C40.3762 28.4085 40.71 28.4328 41.1029 28.7812C41.1578 29.1286 41.1762 29.4141 41.1693 29.7615C41.1694 29.8574 41.1694 29.9534 41.1694 30.0522C41.1688 30.2549 41.1668 30.4576 41.1635 30.6602C41.1589 30.9712 41.159 31.2819 41.1597 31.5929C41.1585 31.7897 41.1571 31.9865 41.1553 32.1833C41.1553 32.2766 41.1553 32.3699 41.1553 32.4661C41.1499 32.7277 41.1499 32.7277 41.1029 33.1487C40.7556 33.3802 40.6852 33.4002 40.2931 33.3946C40.1583 33.3935 40.1583 33.3935 40.0208 33.3924C39.8808 33.3896 39.8808 33.3896 39.738 33.3867C39.6434 33.3857 39.5487 33.3847 39.4512 33.3837C39.2178 33.381 38.9844 33.377 38.7511 33.3727C38.713 33.5841 38.713 33.5841 38.6741 33.7997C38.5539 34.3501 38.3383 34.8296 38.0927 35.3347C38.0513 35.4264 38.0098 35.5181 37.9671 35.6125C37.9331 35.6879 37.899 35.7632 37.8639 35.8409C37.8301 36.0857 37.8301 36.0857 38.0568 36.3129C38.1497 36.3982 38.2425 36.4835 38.3381 36.5714C39.0714 37.254 39.0714 37.254 39.122 37.7403C39.087 38.0763 39.087 38.0763 38.9191 38.2863C38.8636 38.3278 38.8082 38.3694 38.7511 38.4122C38.8439 38.3945 38.9367 38.3767 39.0324 38.3584C40.0817 38.2022 41.3227 38.0985 42.2227 38.7482C42.5986 39.0968 42.8802 39.454 42.9056 39.9849C42.902 40.2073 42.8983 40.4297 42.8947 40.652C43.0105 40.6278 43.0105 40.6278 43.1287 40.603C44.2959 40.3725 45.4343 40.2646 46.5133 40.855C46.9392 41.2017 47.3383 41.5791 47.4049 42.1438C47.4332 42.9256 47.3467 43.4254 46.8143 44.0117C45.902 44.8856 44.7715 45.5617 43.7367 46.2793C43.3238 46.5665 42.9132 46.8568 42.5027 47.1474C42.3452 47.2586 42.1878 47.3697 42.0303 47.4808C41.79 47.6503 41.5499 47.82 41.3102 47.9903C38.3812 50.0711 35.3946 52.1764 32.2277 53.8808C32.1543 53.9205 32.0809 53.9603 32.0052 54.0012C30.7686 54.6473 29.6497 54.7095 28.2831 54.726C28.0717 54.7296 27.8602 54.7334 27.6488 54.7373C25.895 54.7669 24.141 54.772 22.387 54.7785C22.1161 54.7796 21.8452 54.7807 21.5743 54.7818C21.3015 54.7829 21.0287 54.7839 20.756 54.785C20.6207 54.7856 20.4854 54.7861 20.346 54.7867C19.6473 54.7893 18.9486 54.7909 18.2499 54.7908C17.5596 54.7907 16.8694 54.7933 16.1791 54.7977C15.9191 54.7989 15.659 54.799 15.399 54.7982C15.0402 54.7971 14.6816 54.7995 14.3227 54.8026C14.1637 54.8009 14.1637 54.8009 14.0015 54.7992C13.4042 54.8001 13.4042 54.8001 12.9375 55.1501C12.8543 55.291 12.8543 55.291 12.7695 55.4346C12.212 55.8198 11.4724 55.6999 10.8237 55.7006C10.6871 55.7034 10.5506 55.7061 10.4099 55.7089C9.28779 55.7126 9.28779 55.7126 8.8875 55.474C8.3616 54.9446 8.2514 54.4512 8.24316 53.7306C8.24366 53.6262 8.24417 53.5218 8.24469 53.4142C8.24392 53.3027 8.24315 53.1912 8.24236 53.0763C8.24031 52.7087 8.24074 52.3411 8.24138 51.9735C8.24087 51.7174 8.24027 51.4614 8.2396 51.2053C8.2386 50.6691 8.23887 50.1329 8.23998 49.5967C8.24127 48.9098 8.23901 48.223 8.23574 47.5361C8.23368 47.0075 8.23371 46.4789 8.23435 45.9503C8.23437 45.697 8.23369 45.4438 8.2323 45.1905C8.23064 44.8364 8.23183 44.4824 8.23375 44.1283C8.23267 44.0239 8.23158 43.9195 8.23047 43.812C8.23756 43.1875 8.32009 42.827 8.73789 42.3319C9.36979 41.7766 10.0461 41.8597 10.8447 41.8559C10.9657 41.8536 11.0868 41.8513 11.2115 41.8489C12.36 41.8433 12.36 41.8433 12.8815 42.2199C13.1475 42.5209 13.1475 42.5209 13.3295 42.7798C15.5525 41.5452 17.7588 40.2849 19.9368 38.9722C19.8863 38.9189 19.8358 38.8657 19.7838 38.8109C19.5016 38.5083 19.2875 38.2388 19.1179 37.8593C19.1748 37.3016 19.5572 37.0085 19.9368 36.6204C20.0479 36.491 20.1578 36.3605 20.2658 36.2284C20.342 36.1361 20.4183 36.0437 20.4968 35.9485C20.4522 35.8658 20.4076 35.783 20.3616 35.6978C19.9642 34.9368 19.6769 34.2105 19.4889 33.3727C19.3473 33.3766 19.2056 33.3805 19.0597 33.3845C18.8738 33.3877 18.6879 33.3907 18.502 33.3937C18.4086 33.3965 18.3153 33.3993 18.2192 33.4022C18.0844 33.4039 18.0844 33.4039 17.9468 33.4055C17.8228 33.4082 17.8228 33.4082 17.6963 33.4109C17.4731 33.3727 17.4731 33.3727 17.278 33.2606C17.0522 32.9018 17.0916 32.5202 17.0964 32.1093C17.0963 31.9733 17.0963 31.9733 17.0963 31.8345C17.0965 31.6428 17.0976 31.4512 17.0995 31.2595C17.1021 30.966 17.1018 30.6727 17.101 30.3792C17.1016 30.193 17.1024 30.0068 17.1034 29.8206C17.1033 29.7327 17.1032 29.6449 17.1031 29.5543C17.1087 29.1263 17.118 28.9217 17.3611 28.5572C17.7769 28.4186 18.1801 28.4053 18.614 28.3822C18.6979 28.3774 18.7819 28.3725 18.8683 28.3675C19.0752 28.3557 19.282 28.3444 19.4889 28.3332C19.5254 28.2278 19.5619 28.1224 19.5996 28.0138C19.6485 27.8744 19.6974 27.7349 19.7479 27.5913C19.7959 27.4535 19.844 27.3158 19.8935 27.1739C20.0488 26.7653 20.0488 26.7653 20.2426 26.4057C20.4019 26.1149 20.4019 26.1149 20.3813 25.858C20.1788 25.4613 19.8201 25.2013 19.4924 24.9079C19.2041 24.5653 19.1222 24.4161 19.1529 23.9656C19.3735 23.6278 19.6532 23.3549 19.9368 23.0697C20.1002 22.8936 20.2635 22.7174 20.4268 22.5412C20.5991 22.3625 20.7718 22.184 20.9447 22.0058C21.0738 21.8676 21.0738 21.8676 21.2055 21.7267C21.8415 21.0755 21.8415 21.0755 22.3779 20.9712C22.7642 21.0602 22.9322 21.1497 23.2125 21.4248C23.2847 21.4937 23.3569 21.5626 23.4313 21.6335C23.6325 21.8378 23.6325 21.8378 23.7917 22.0386C23.9659 22.2027 23.9659 22.2027 24.2279 22.1558C24.56 22.0519 24.874 21.9273 25.1933 21.7888C25.6386 21.5963 26.0822 21.4259 26.5442 21.2779C26.5471 21.1456 26.55 21.0134 26.553 20.8771C26.5593 20.7027 26.5657 20.5283 26.5722 20.3539C26.5738 20.2669 26.5754 20.1798 26.577 20.0902C26.5806 20.0057 26.5842 19.9213 26.588 19.8342C26.5903 19.7568 26.5927 19.6794 26.5951 19.5997C26.7955 18.86 27.3835 18.861 28.0425 18.8705ZM28.1121 20.2699C28.0974 20.8813 28.0974 20.8813 28.0888 21.4928C28.0632 22.1151 28.0632 22.1151 27.7752 22.3829C27.3434 22.5464 26.9088 22.6898 26.4672 22.8247C25.7624 23.0468 25.1567 23.2884 24.5551 23.7302C24.1845 23.9127 23.928 23.908 23.5205 23.8536C23.199 23.6086 23.199 23.6086 22.9116 23.2937C22.7663 23.1378 22.7663 23.1378 22.618 22.9787C22.5463 22.8979 22.4745 22.817 22.4006 22.7337C21.854 23.1752 21.3862 23.643 20.9447 24.1896C21.066 24.2972 21.066 24.2972 21.1897 24.407C21.2937 24.5039 21.3976 24.6007 21.5047 24.7005C21.6086 24.7954 21.7126 24.8902 21.8197 24.9879C22.0646 25.3095 22.0646 25.3095 22.1176 25.7106C22.0642 26.0969 22.0066 26.2505 21.7777 26.5554C21.3291 27.2394 21.1138 27.9909 20.8732 28.7659C20.8419 28.8656 20.8107 28.9654 20.7785 29.0681C20.7511 29.1583 20.7237 29.2486 20.6955 29.3415C20.6088 29.5651 20.6088 29.5651 20.3848 29.7891C20.0593 29.8235 19.7451 29.8463 19.4189 29.859C19.1094 29.8729 18.7999 29.8868 18.481 29.901C18.481 30.5663 18.481 31.2315 18.481 31.9169C19.0923 31.9359 19.0923 31.9359 19.7038 31.9502C20.3237 31.978 20.3237 31.978 20.5978 32.206C20.7606 32.5645 20.8691 32.9312 20.9727 33.3097C21.1941 34.0775 21.4922 34.71 21.9128 35.3925C22.1017 35.8056 22.131 36.0588 22.0646 36.5084C21.8197 36.83 21.8197 36.83 21.5047 37.1174C21.4008 37.2142 21.2968 37.3111 21.1897 37.4109C21.1089 37.4826 21.028 37.5544 20.9447 37.6283C21.1295 37.8131 21.3143 37.9979 21.5047 38.1883C21.5984 38.1369 21.6921 38.0855 21.7886 38.0325C23.3534 37.2077 25.1015 36.5718 26.8802 37.0894C27.4797 37.329 27.8674 37.6356 28.2101 38.1953C28.4359 38.8032 28.4856 39.642 28.2219 40.2382C28.0546 40.6444 28.0546 40.6444 28.1121 41.5479C28.7773 41.5479 29.4425 41.5479 30.1279 41.5479C30.1425 40.9366 30.1425 40.9366 30.1512 40.3251C30.1609 40.0878 30.1794 39.8741 30.2399 39.6441C30.6003 39.3239 31.0186 39.2301 31.4788 39.1052C32.3584 38.846 33.1719 38.4734 33.9355 37.9643C34.4293 37.8998 34.6395 37.9034 35.041 38.2093C35.1358 38.3132 35.2307 38.4171 35.3284 38.5242C35.4253 38.6282 35.5221 38.7321 35.6219 38.8392C35.7296 38.9605 35.7296 38.9605 35.8393 39.0842C36.3859 38.6427 36.8538 38.1749 37.2952 37.6283C37.1739 37.5207 37.1739 37.5207 37.0502 37.4109C36.8943 37.2656 36.8943 37.2656 36.7353 37.1174C36.6313 37.0225 36.5274 36.9277 36.4203 36.83C36.1753 36.5084 36.1753 36.5084 36.1145 36.1265C36.1839 35.6679 36.3502 35.3428 36.5883 34.9546C37.0006 34.2417 37.2539 33.539 37.4578 32.7424C37.5102 32.5404 37.57 32.3404 37.6312 32.1408C38.0003 31.9563 38.4145 31.986 38.8211 31.9659C39.2853 31.9416 39.2853 31.9416 39.759 31.9169C39.759 31.2516 39.759 30.5864 39.759 29.901C39.0568 29.8641 38.3546 29.8271 37.6312 29.7891C37.5653 29.498 37.5653 29.498 37.4982 29.2011C37.241 28.1759 36.8539 27.2308 36.2781 26.3432C36.1257 25.9729 36.1255 25.7061 36.1753 25.3095C36.4203 24.9879 36.4203 24.9879 36.7353 24.7005C36.8392 24.6037 36.9431 24.5068 37.0502 24.407C37.1311 24.3353 37.2119 24.2635 37.2952 24.1896C36.8538 23.643 36.3859 23.1752 35.8393 22.7337C35.7676 22.8146 35.6959 22.8954 35.6219 22.9787C35.5251 23.0826 35.4282 23.1866 35.3284 23.2937C35.2335 23.3976 35.1387 23.5015 35.041 23.6086C34.7195 23.8536 34.7195 23.8536 34.338 23.9144C33.8779 23.8449 33.549 23.6784 33.1586 23.4407C32.3238 22.9622 31.2247 22.3977 30.2399 22.3977C30.2029 21.6956 30.166 20.9934 30.1279 20.2699C29.4627 20.2699 28.7974 20.2699 28.1121 20.2699ZM18.9705 41.243C18.2605 41.6594 17.5459 42.0674 16.8306 42.4745C14.9804 43.3871 14.9804 43.3871 13.3295 44.5717C13.3188 44.8442 13.3154 45.1136 13.3167 45.3862C13.3167 45.4715 13.3167 45.5567 13.3167 45.6445C13.3168 45.9275 13.3177 46.2104 13.3185 46.4934C13.3187 46.6891 13.3189 46.8848 13.319 47.0805C13.3194 47.5965 13.3205 48.1126 13.3218 48.6287C13.3229 49.1548 13.3234 49.681 13.324 50.2072C13.3252 51.2404 13.3271 52.2736 13.3295 53.3068C15.1394 53.3095 16.9493 53.3114 18.7592 53.3126C19.5999 53.3132 20.4406 53.314 21.2812 53.3153C22.0153 53.3164 22.7494 53.3171 23.4834 53.3174C23.8709 53.3175 24.2583 53.3179 24.6458 53.3187C26.1005 53.3215 27.554 53.3188 29.0077 53.2624C29.1641 53.2569 29.1641 53.2569 29.3237 53.2514C30.1421 53.2143 30.7582 53.0488 31.4718 52.6349C31.6298 52.5487 31.7879 52.4625 31.946 52.3764C34.8489 50.7516 37.6047 48.7938 40.3117 46.8642C40.632 46.636 40.9537 46.4096 41.2752 46.1831C41.5103 46.0174 41.7452 45.8515 41.98 45.6854C42.3014 45.4582 42.6231 45.2313 42.945 45.0047C44.532 44.0035 44.532 44.0035 45.9184 42.7798C45.9541 42.4914 45.9541 42.4914 45.8064 42.2199C45.1797 41.849 44.5867 41.7826 43.8769 41.9389C43.1307 42.15 42.5034 42.4706 41.8378 42.8638C41.6108 42.9951 41.3838 43.1261 41.1567 43.2571C41.0385 43.3256 40.9203 43.3941 40.7985 43.4646C40.1715 43.8247 39.538 44.1732 38.9051 44.5227C38.1734 44.927 37.4431 45.3327 36.7204 45.7528C36.6138 45.8147 36.5072 45.8765 36.3974 45.9402C36.2 46.0552 36.0031 46.1709 35.8067 46.2874C31.9797 48.5165 24.0018 46.7979 19.8249 45.9155C19.7778 45.233 19.8126 44.8901 20.2728 44.3477C21.6602 43.1347 23.4144 42.2678 25.0223 41.3883C26.1839 40.7661 26.1839 40.7661 26.9922 39.7561C27.0368 39.3033 27.0368 39.3033 26.9922 38.8602C26.5636 38.4084 26.1592 38.2824 25.5503 38.2653C23.1727 38.3116 20.9471 40.0816 18.9705 41.243ZM33.3686 39.8471C32.7809 40.1233 32.2043 40.3507 31.5837 40.54C31.5809 40.6817 31.578 40.8233 31.575 40.9692C31.5687 41.1551 31.5623 41.341 31.5557 41.527C31.5542 41.6203 31.5526 41.7136 31.5509 41.8098C31.5473 41.8996 31.5437 41.9895 31.54 42.0821C31.5377 42.1648 31.5353 42.2475 31.5329 42.3327C31.4718 42.5559 31.4718 42.5559 31.2973 42.7512C30.9214 42.9445 30.5755 42.9357 30.1629 42.9286C30.0387 42.9283 30.0387 42.9283 29.9119 42.9279C29.7372 42.9272 29.5625 42.9256 29.3878 42.9233C29.1209 42.9198 28.8541 42.9187 28.5872 42.9181C28.4171 42.917 28.2471 42.9159 28.0771 42.9146C27.9975 42.9141 27.9179 42.9136 27.836 42.9131C27.4649 42.9078 27.1232 42.8937 26.7682 42.7798C26.7128 42.4472 26.7128 42.4472 26.6562 42.1079C25.7168 42.5979 24.7883 43.1044 23.8705 43.6338C23.7841 43.6833 23.6977 43.7329 23.6087 43.7839C23.0031 44.1354 22.4192 44.5132 21.8407 44.9076C23.0285 45.591 25.1251 45.5 26.4182 45.1596C26.8003 45.0497 27.1757 44.9237 27.5521 44.7956C27.8204 44.709 28.0887 44.6224 28.3571 44.5358C30.3879 43.8719 32.1473 43.1163 33.8496 41.8106C34.1522 41.5802 34.4602 41.3578 34.7684 41.135C34.8676 41.063 34.9668 40.9909 35.069 40.9167C35.1384 40.8663 35.2079 40.8159 35.2794 40.764C35.1229 40.4103 34.9376 40.1679 34.6635 39.8961C34.5953 39.8274 34.5272 39.7587 34.457 39.6879C34.0802 39.3715 33.7644 39.6568 33.3686 39.8471ZM36.6215 41.5528C36.0051 42.0126 35.3762 42.4544 34.7453 42.894C34.4398 43.1072 34.1399 43.3257 33.8432 43.5511C32.6315 44.4537 31.3242 44.9693 29.9039 45.4676C30.2719 45.6869 30.547 45.7192 30.9726 45.7174C31.0929 45.7172 31.2133 45.7169 31.3372 45.7167C31.4625 45.7153 31.5877 45.714 31.7167 45.7126C31.8398 45.7125 31.9629 45.7124 32.0897 45.7123C32.444 45.7104 32.7975 45.7025 33.1516 45.6916C33.2848 45.6901 33.2848 45.6901 33.4207 45.6885C34.1938 45.6482 34.7859 45.2925 35.4474 44.9146C35.5647 44.8491 35.6821 44.7835 35.803 44.716C36.0401 44.583 36.2768 44.4491 36.513 44.3144C36.8137 44.1429 37.1156 43.9739 37.4181 43.8057C38.477 43.2148 38.477 43.2148 39.3705 42.4049C39.5628 42.1886 39.7714 42.0035 39.99 41.8139C40.0644 41.7493 40.1389 41.6846 40.2157 41.6179C40.4082 41.4552 40.6043 41.2985 40.8019 41.142C41.0995 40.879 41.2881 40.6835 41.4388 40.3161C41.3714 40.0768 41.3714 40.0768 41.2148 39.8681C39.552 39.0595 37.8702 40.6202 36.6215 41.5528ZM9.85779 43.3398C9.5386 43.659 9.69503 44.5442 9.6828 44.9916C9.68047 45.0723 9.67814 45.1529 9.67573 45.236C9.62728 46.9578 9.62159 48.6798 9.61981 50.4021C9.61952 50.533 9.61923 50.664 9.61893 50.7989C9.61827 51.1765 9.61846 51.5542 9.61894 51.9319C9.61871 52.0445 9.61849 52.157 9.61826 52.273C9.62039 52.9251 9.66199 53.5559 9.7458 54.2028C10.4187 54.4271 11.1657 54.247 11.8736 54.2028C11.8736 50.618 11.8736 47.0332 11.8736 43.3398C11.2084 43.3398 10.5432 43.3398 9.85779 43.3398Z" fill="#0C79F4"/>
<path d="M16.438 10.5176C18.1132 11.7995 19.1226 13.5002 19.5584 15.5545C19.8319 17.7532 19.4585 19.8767 18.1179 21.6842C17.9805 21.8497 17.8404 22.0129 17.6979 22.1741C17.6175 22.2664 17.5371 22.3586 17.4543 22.4536C16.1303 23.8772 14.2345 24.7906 12.2896 24.8907C10.0517 24.9651 8.05183 24.3928 6.33362 22.8937C4.76617 21.3869 3.83264 19.5042 3.76666 17.3277C3.7375 15.0885 4.3207 13.2305 5.82704 11.5351C5.88911 11.4638 5.95119 11.3925 6.01515 11.319C8.70451 8.42376 13.3285 8.3533 16.438 10.5176ZM6.7842 12.6449C5.47323 14.1719 5.1243 15.8849 5.23713 17.8544C5.33497 18.795 5.6492 19.6656 6.275 20.3823C6.33087 20.3335 6.38673 20.2847 6.44429 20.2344C7.15004 19.649 7.89677 19.2817 8.73877 18.9264C8.64565 18.7781 8.64565 18.7781 8.55066 18.6268C7.80473 17.4057 7.44903 16.3418 7.73086 14.8948C7.98792 13.8789 8.59328 13.0522 9.46582 12.4682C10.6056 11.8628 11.8014 11.6967 13.056 12.0675C13.3105 12.1725 13.5414 12.2911 13.7783 12.431C13.8937 12.4982 13.8937 12.4982 14.0115 12.5666C14.7808 13.0756 15.3512 13.8844 15.6191 14.7688C15.8714 16.155 15.6409 17.3288 14.8702 18.4995C14.7688 18.6427 14.6667 18.7854 14.5622 18.9264C14.7164 18.9855 14.7164 18.9855 14.8737 19.0458C15.7139 19.3798 16.391 19.7158 17.026 20.3823C17.4454 20.0228 17.598 19.6835 17.7749 19.1644C17.8215 19.0307 17.8682 18.897 17.9162 18.7593C18.4156 17.0922 18.1782 15.3492 17.404 13.8029C16.4294 12.1616 14.9149 11.0696 13.0775 10.5705C10.6463 10.2276 8.4987 10.8388 6.7842 12.6449ZM9.71605 14.1157C9.22956 14.6671 8.98906 15.2778 8.96275 16.0147C9.07106 16.8546 9.40143 17.5396 10.0686 18.0655C10.7407 18.5297 11.3984 18.7145 12.2104 18.5904C13.039 18.318 13.625 17.8521 14.1143 17.1346C14.4381 16.4869 14.4661 15.7308 14.2402 15.0453C13.8998 14.3017 13.4813 13.7486 12.7109 13.4359C11.5371 13.0613 10.6143 13.2657 9.71605 14.1157ZM7.78686 20.9422C7.71641 20.9977 7.64596 21.0531 7.57338 21.1102C7.36855 21.2903 7.36855 21.2903 7.17091 21.6142C8.39339 22.8366 9.99692 23.3946 11.6925 23.441C13.4594 23.4108 14.907 22.7537 16.2421 21.6142C15.57 20.8791 14.778 20.341 13.7626 20.2484C13.4951 20.239 13.2284 20.2363 12.9607 20.2366C12.8135 20.2359 12.8135 20.2359 12.6633 20.2351C12.4565 20.2345 12.2497 20.2344 12.0429 20.2349C11.7296 20.2353 11.4163 20.2327 11.103 20.2298C9.34048 20.1964 9.34048 20.1964 7.78686 20.9422Z" fill="#0C79F4"/>
<path d="M50.4747 10.5565C52.0473 11.821 53.2751 13.6472 53.5328 15.6785C53.6903 18.1515 53.2947 20.3464 51.6338 22.2675C50.1989 23.7875 48.3542 24.7938 46.2333 24.8883C44.0408 24.9402 42.1118 24.4438 40.43 22.9578C40.3378 22.8774 40.2455 22.797 40.1505 22.7142C38.7269 21.3902 37.8136 19.4944 37.7134 17.5495C37.639 15.3116 38.2114 13.3117 39.7104 11.5935C42.5275 8.66296 47.1493 8.07488 50.4747 10.5565ZM40.654 12.7668C39.5327 14.2663 39.0288 15.9407 39.1981 17.8063C39.3406 18.6837 39.5897 19.5316 40.094 20.2701C40.4798 20.1287 40.7908 19.9647 41.1229 19.7241C41.6453 19.3654 42.1866 19.1374 42.7818 18.9262C42.7372 18.8625 42.6926 18.7989 42.6466 18.7333C41.8289 17.5415 41.5534 16.5756 41.6619 15.1186C41.8701 14.1401 42.3589 13.2738 43.1698 12.6749C44.3014 11.9704 45.4189 11.727 46.7312 12.0069C47.7394 12.2964 48.5727 12.8098 49.1096 13.7261C49.6744 14.8315 49.813 16.0405 49.5327 17.2608C49.3009 17.8579 48.9615 18.396 48.6052 18.9262C48.7255 18.9844 48.8458 19.0426 48.9697 19.1025C49.1305 19.1813 49.2913 19.2602 49.4522 19.3392C49.5311 19.3772 49.61 19.4152 49.6912 19.4544C50.2289 19.7196 50.7013 20.0222 51.181 20.3821C51.2686 20.2194 51.3546 20.0559 51.44 19.8921C51.4881 19.8012 51.5361 19.7102 51.5857 19.6165C51.968 18.7442 52.1371 17.9388 52.1259 16.9874C52.1245 16.8334 52.1245 16.8334 52.1231 16.6764C52.0822 15.0269 51.4589 13.6063 50.3271 12.4028C48.8969 11.0591 47.3004 10.4528 45.3549 10.474C43.5031 10.5432 41.8915 11.4074 40.654 12.7668ZM43.6436 14.1093C43.1166 14.7347 42.9307 15.3883 42.9708 16.2C43.078 17.0043 43.5339 17.6136 44.1257 18.1423C44.7602 18.5556 45.3929 18.6983 46.1415 18.5902C46.9096 18.4171 47.4898 18.0106 47.9696 17.3907C48.3726 16.7206 48.3606 15.9894 48.2693 15.2305C48.0727 14.486 47.5555 13.9693 46.9254 13.5507C45.7455 13.0044 44.5833 13.2019 43.6436 14.1093ZM41.5289 21.138C41.4465 21.2067 41.3641 21.2754 41.2791 21.3462C41.2207 21.3976 41.1622 21.449 41.102 21.502C42.0489 22.5795 43.3965 23.1818 44.7976 23.4058C46.648 23.5181 48.434 23.1329 49.8791 21.9009C49.9761 21.8062 50.0731 21.7115 50.1731 21.6139C49.6948 20.9284 49.0728 20.5336 48.2593 20.3209C47.8114 20.2511 47.3702 20.2474 46.9175 20.2434C46.8193 20.2425 46.7211 20.2416 46.62 20.2407C46.4123 20.2391 46.2047 20.2379 45.997 20.237C45.7865 20.2357 45.5761 20.2334 45.3656 20.2301C43.3107 20.1913 43.3107 20.1913 41.5289 21.138Z" fill="#0C79F4"/>
<path d="M33.1979 2.98159C33.4538 3.17253 33.6947 3.37237 33.9342 3.58353C34.0182 3.65701 34.1022 3.73049 34.1888 3.8062C35.8073 5.31701 36.5786 7.37165 36.6569 9.55397C36.6067 11.587 35.9188 13.3397 34.6061 14.8945C34.5455 14.9678 34.4848 15.0411 34.4224 15.1167C33.1361 16.5329 31.1083 17.3956 29.224 17.4987C27.0754 17.5761 24.9567 16.9958 23.3442 15.5174C21.6867 13.9176 20.7562 11.9456 20.6914 9.63097C20.7149 7.35956 21.5903 5.31337 23.2032 3.72743C25.9082 1.19136 30.1366 0.930867 33.1979 2.98159ZM23.7431 5.26338C22.616 6.63971 22.0217 8.40816 22.1753 10.1909C22.3403 11.192 22.6085 12.1428 23.1832 12.9907C23.2349 12.9486 23.2865 12.9066 23.3398 12.8633C24.0847 12.2789 24.8792 11.8785 25.7589 11.5348C25.7062 11.4589 25.6535 11.3829 25.5993 11.3047C24.8215 10.142 24.4265 9.06314 24.6955 7.65584C25.01 6.48218 25.6762 5.56617 26.727 4.94316C27.7803 4.43313 28.8585 4.37156 29.9804 4.67237C30.9433 5.01248 31.7898 5.7048 32.2644 6.61819C32.4886 7.09617 32.6581 7.5325 32.7023 8.06311C32.7094 8.13371 32.7164 8.2043 32.7237 8.27703C32.7918 9.4881 32.3124 10.5931 31.5824 11.5348C31.6596 11.5674 31.7368 11.6 31.8164 11.6337C32.5393 11.949 33.18 12.3105 33.8222 12.7667C33.9885 12.8775 33.9885 12.8775 34.1581 12.9907C34.2663 12.7835 34.3734 12.5757 34.4801 12.3677C34.5399 12.2521 34.5996 12.1364 34.6612 12.0173C35.305 10.6047 35.3213 8.96249 34.8301 7.50317C34.0595 5.5889 32.8663 4.26475 30.9433 3.44399C28.3545 2.59282 25.6082 3.25573 23.7431 5.26338ZM26.5429 6.83123C26.1005 7.49472 25.9187 8.16297 25.9829 8.95903C26.201 9.82308 26.5921 10.3638 27.3268 10.8629C28.0231 11.2553 28.6368 11.3161 29.4043 11.1293C30.2197 10.8509 30.7397 10.385 31.1449 9.62528C31.4657 8.86057 31.4137 8.17509 31.1305 7.40649C30.7893 6.65097 30.1996 6.24086 29.4546 5.93531C28.3631 5.62856 27.3245 6.04074 26.5429 6.83123ZM24.562 13.7466C24.49 13.8153 24.418 13.884 24.3438 13.9548C24.2682 14.0319 24.2682 14.0319 24.1911 14.1105C24.9406 15.2185 26.2877 15.7114 27.5525 15.9719C29.3187 16.1962 31.1034 15.8923 32.5374 14.7886C32.7483 14.6055 32.9522 14.4194 33.1502 14.2225C32.6315 13.4789 31.9094 13.0679 31.0224 12.8787C30.8684 12.8673 30.7138 12.861 30.5594 12.8588C30.4692 12.8574 30.379 12.856 30.2861 12.8545C30.1411 12.8532 30.1411 12.8532 29.9931 12.852C29.8922 12.8511 29.7914 12.8502 29.6875 12.8492C29.4739 12.8477 29.2603 12.8465 29.0467 12.8456C28.8301 12.8443 28.6134 12.842 28.3968 12.8387C26.3232 12.7685 26.3232 12.7685 24.562 13.7466Z" fill="#0C79F4"/>
<path d="M31.8828 26.8422C32.9457 27.6009 33.6845 28.6357 33.9686 29.9149C34.2192 31.4474 33.862 32.8048 32.9668 34.0813C32.1339 35.0962 31.0681 35.6182 29.79 35.8364C28.2421 35.9517 26.9448 35.5554 25.7373 34.5835C24.8056 33.7297 24.275 32.4976 24.1726 31.2505C24.1167 29.8975 24.5728 28.6689 25.4364 27.6472C25.9349 27.1151 26.448 26.747 27.1022 26.4293C27.2131 26.3723 27.2131 26.3723 27.3262 26.3142C28.7948 25.6918 30.5739 26.0458 31.8828 26.8422ZM26.4303 28.781C25.836 29.5201 25.6019 30.3003 25.6604 31.2448C25.7945 32.2294 26.2376 33.0556 26.9902 33.7086C27.963 34.3126 28.9464 34.5776 30.0839 34.3118C31.0453 33.9708 31.7819 33.3629 32.2537 32.4557C32.6839 31.5311 32.6697 30.6749 32.3544 29.7159C32.0195 28.841 31.2429 28.0505 30.3849 27.6612C28.8508 27.1917 27.4921 27.6451 26.4303 28.781Z" fill="#0C79F4"/>
</svg>
